<?xml version="1.0" encoding="utf-8"?>
<!-- Generator: Adobe Illustrator 24.0.2, SVG Export Plug-In . SVG Version: 6.00 Build 0)  -->
<svg version="1.1" id="Layer_1" xmlns="http://www.w3.org/2000/svg" xmlns:xlink="http://www.w3.org/1999/xlink" x="0px" y="0px"
	 viewBox="0 0 257.7 289.2" style="enable-background:new 0 0 257.7 289.2;" xml:space="preserve">
<style type="text/css">
	.st0{fill:#FFE0B1;}
</style>
<title>Deth-Envelope</title>
<path class="st0" d="M190.2,87.7c1.6,1,3.5,1.3,5.4,1.9c2.7,0.9,5.4,1.7,8,2.5h-0.1l0.1-0.1c2.8,0.7,5.7,1.1,8.3,2.4
	c1,0.4,2.1,0.6,3.2,0.8c3.1,0.8,6.2,1.7,9.4,2.5c3.7,1,7.5,1.8,11.2,3.1c2.4,0.8,4.9,0.8,7.2,1.7c0.5,0.2,1.1,0.2,1.5,0.5
	c1.1,0.8,2.3,1.3,3.6,1.4h-0.1l0.1-0.1c1.6,0.5,3.3,1.1,5,1.5c2.4,0.6,4.2,2.6,4.5,5c0.3,2.7,0.3,5.3,0.2,8c0,4.7,0.2,9.5,0.2,14.2
	c0,2.3-0.1,4.7-0.3,7c-0.4,4.3-1,8.6-1.1,13c0,6-0.6,12-1.7,17.9c-0.7,3.1-0.4,6.3-0.5,9.4c0,2.7-0.2,5.3-0.5,8
	c-0.5,2.9-0.7,5.8-0.6,8.8c0.1,3.1,0,6.2-0.3,9.3c-0.4,3.4-0.3,6.9-0.5,10.4c-0.2,2.7-0.4,5.4-0.7,8.1c-0.2,0.9-0.5,1.8-0.8,2.7
	c-0.2,0.5-0.4,1-0.4,1.6c0,1.4-0.3,2.8-1,4c-0.7,1.8-2.4,3-4.4,3.1c-2.3,0.2-4.6,0.4-6.8,0.4c-1.6-0.1-3.3-0.2-4.9-0.5
	c-4-0.6-8.1-1.2-12.1-2c-3.4-0.7-6.8-1.3-10.1-2.3c-1.3-0.4-1.7,0.2-1.4,1.5c0.5,2,0.9,4.1,1.2,6.2c0.3,3,0.4,6,0.5,9
	c0,1.1-0.2,2.2-0.2,3.3c-0.1,0.7-0.1,1.4,0,2.1c0.4,2.4,0.3,4.9-0.2,7.3c-0.4,2.1-0.6,4.2-1,6.3c-0.2,1.5-0.5,3.1-0.8,4.6
	c0,0.3-0.2,0.7-0.1,0.9c1.4,2.3,0,4.6-0.1,6.9c-0.3,2-1.7,3.5-3.6,4c-1.6,0.3-3.3,0.4-4.9,0.3c-2.5-0.1-4.9-0.4-7.4-0.5
	c-1.8-0.1-3.6,0-5.4-0.2c-4.7-0.6-9.4-1.2-14-2.1c-1.1-0.2-2,0-3-0.1c-2.6-0.4-5.2-0.6-7.8-1c-0.5-0.1-1-0.3-1.4-0.2
	c-1.7,0.6-2.7-0.2-3.3-1.8c-0.3,0-0.7,0.1-1,0.3c-3.5,2.7-6.7,5.8-9.5,9.2c-0.7,0.9-1.7,1.4-2.9,1.3c-2.3-0.1-4.4-0.6-5.9-2.4
	c-0.5-0.5-1.1-0.9-1.6-1.3s-1.1-1.2-1.7-1.9c-0.1-0.2-0.3-0.4-0.4-0.6c-0.8-1.3-2.4-1.8-3.1-3.3c-0.8-1.4-1.6-2.7-2.6-3.9
	c-0.4-0.8-1.3-1.3-2.2-1.2c-0.2,0-0.6,0.1-0.7,0c-1.4-1.4-3.1-0.5-4.7-0.5c-0.8,0-1.6,0-2.4-0.1c-5.5-0.6-11-1.4-16.4-2.6
	c-3.9-0.9-7.8-1.4-11.6-2.4c-1.9-0.5-4.1-0.2-5.8-1.5c-0.3-0.2-0.8,0-1.1,0c-1-0.1-2-0.2-3-0.3c-0.2,0-0.4-0.2-0.7-0.2
	c-2.4-0.1-4.8-0.3-7.3-0.4c-0.8-0.1-1.7-0.3-2.5-0.5c-0.3-0.1-0.8-0.4-0.9-0.3c-1.3,1.2-2.5,0-3.7-0.2c-1.9-0.3-3.7-0.6-5.6-1
	c-1.7-0.4-3.4-0.9-5-1.6c-1.7-0.8-3.6-1.2-5.5-1.1c-0.9,0-1.9-0.1-2.8-0.2c-2.4,0-4.7,0-7.1,0c-0.8-0.1-1.5-0.3-2.2-0.5
	c-0.4-0.1-0.7-0.2-1-0.3l-6.7-1.3c-0.2,0-0.5-0.3-0.7-0.2c-2,0.8-3.8-0.2-5.8-0.5c-1.7-0.4-3.4-0.5-5.1-0.3
	c-1.6,0.3-2.8-0.3-4.1-0.7c-1.6-0.5-3.5-0.7-4.5-2.3c-0.3-0.4-0.7-0.9-0.7-1.4c0-3.1,0.3-6.3,0.7-9.4c0.6-4.5,1-9,1-13.5
	c0.1-3.3,0.4-6.6,0.6-9.9c0.1-0.6,0.1-1.3,0.1-1.9c-0.1-1.4-0.7-2.9,0.8-4c0.2-0.1,0.2-0.6,0-0.9c-0.4-1.1-0.3-2.4,0.1-3.5
	c0.4-1.9,0.5-3.9,0.2-5.9c-0.1-1.3-0.5-2.7,0.8-3.9c-1.2-1.3-1-2.7-0.7-4.2c0.5-3.2,0.8-6.4,1.2-9.6c0.2-1.4,0.6-2.8,0.9-4.2
	c0.6-2.7,1.1-5.4,1.6-8c0.2-1.4,0.6-2.8,1.1-4.1c1.1-2.4,0.7-5,1.4-7.3c0.6-2,0.8-4.1,0.8-6.3c0.1-1.8-0.2-3.6-0.2-5.5
	c0-0.9,0-1.9,0.1-2.8c0.3-1.5-0.2-3-1.3-4.1c-1.2-1.4-2.6-2.6-3.9-3.9c-0.8-0.8-1.4-1.6-2.1-2.4l0.1,0.1c-2.5-3.2-5.7-5.8-8.5-8.7
	c-0.4-0.4-0.8-0.8-1.3-1.1c-0.9-0.3-1.6-1.1-1.8-2c-0.1-0.6-0.8-1.1-1.4-1.8l0.8-3.7l3.8-4.1c0.1-0.2,0.3-0.5,0.4-0.5
	c2.2,0.2,2.5-1.9,3.6-2.9H8.5c0-0.1,0.1-0.1,0.1-0.2c0-0.1-0.1-0.3-0.1-0.4h0.1l0.9-0.9v0.1l3.9-5.3l-0.1,0.1l0.6-1l-0.1,0.1l1-1.5
	l0,0c2-2.2,4.1-4.3,6.1-6.6c0.5-0.6,1.1-1.1,1.6-1.6c1.3-1.3,2.5-2.8,3.6-4.3c0.2-0.3,0.3-0.9,0.6-1c2.4-0.8,3.3-3,4.9-4.7
	c1.5-1.3,2.2-3.2,1.9-5.1c-0.4-2.7-0.3-5.5,0.4-8.2c0.9-3.6,0.7-7.4,0.6-11.1c-0.2-3.2,0.1-6.3,1.1-9.4c0.2-0.8,0.2-1.7-0.1-2.5
	c-0.1-0.7-0.4-1.4,0.3-2l0.1,0.1h-0.1c0.5-0.6,1.4-0.8,2.1-0.6c3.1,0.7,6.1,1.4,9.3,2c2.3,0.4,4.7,0.7,7.3,1
	c0.1,1.2,1.3,1.7,2.6,1.8c0.5,0.1,0.9,0,1.3-0.3c0.9-1,2.3-1.4,2.7-2.8c0.2-0.5,0.8-0.9,1.2-1.3s0.9-0.7,1.1-1.2
	c0.5-1.7,2-2.7,3.1-4.1c0.8-1,1.8-1.8,2.6-2.7c0.2-0.2,0.3-0.3,0.4-0.6c0.7-3,3.7-4.4,5-6.9h-0.1c0-0.1,0.1-0.1,0.1-0.2
	c0-0.1-0.1-0.3-0.1-0.4h0.1c1.2-2.1,3.1-3.2,5.1-4.5c1.7-1.1,3.9-2,4.7-4.3c0.3-0.9,1.4-1.5,2.1-2.2h-0.1c0-0.1,0.1-0.1,0.1-0.2
	c0-0.1-0.1-0.3-0.1-0.4h0.1c0.3-0.3,0.8-0.4,0.9-0.8c1.3-3.9,4.6-6.2,7.2-9c0.5-0.5,1.1-0.8,1.7-1.2c1.3-0.7,2.3-1.9,2.8-3.3
	c0.6-1.6,1.4-3.2,2.5-4.5c0.9-1.6,2.8-2.5,4.6-2.2c2.3,0.2,4.4,1.1,6.2,2.6c1.6,1.3,2.6,3,4.1,4.3c0.4,0.3,0.9,0.6,1.4,0.9V7.7h0.6
	v0.1l1.4,1.4l0-0.1c0.6,0.5,1.1,1,1.6,1.6c0.8,0.9,1.7,1.7,2.7,2.3l-0.1-0.1c0.2,0.5,0.2,1.2,0.5,1.5c2.5,2.7,5.1,5.4,7.6,8.1
	l-0.1,0l0.5,0.5h-0.1l1,1.5l-0.1-0.1l1.5,2h-0.1l1.5,2h-0.1c0.7,0.8,1.3,1.6,2,2.4l-0.1-0.1l1,1.5l0-0.1l1.5,2l-0.1-0.1l1.5,2
	l-0.1-0.1c1.4,1.5,2.1,3.7,4.3,4.5c0.4,0.3,0.7,0.8,0.7,1.4c-0.1,1.8,1.1,2.7,2.2,3.7l0-0.1l0.5,0.5h-0.1c0.3,0.3,0.5,0.6,0.7,0.9
	c0.7,1.9,1.8,3.6,3.3,5.1c1.5,1.5,2.8,3.1,4,4.8c1.2,1.6,2.5,3.1,3.8,4.5c0.6,0.7,1.3,1.3,2,2l-0.1-0.1c0,1.4,1,2.2,2,2.9l-0.1-0.1
	l1.5,2l-0.1-0.1c0.8,1.1,1.6,2.3,2.4,3.4l-0.1-0.1c0.8,1.4,1.9,2.6,3.3,3.3h0.1c0,0.1-0.1,0.1-0.1,0.2c0,0.1,0.1,0.3,0.1,0.4h-0.1
	l0.5,1l-0.1-0.1l2,2l-0.1-0.1c0.3,0.4,0.5,1,0.9,1.3c1.4,0.7,2.3,2,2.5,3.6l0-0.1l1.5,2l-0.1-0.1c0.4,0.8,1,1.5,2,1.4
	c1.8-0.1,3.6,0.3,5.3,1c1.1,0.4,2.2,0.6,3.4,0.9l-0.1,0.1L190.2,87.7z M196.9,109.7h-0.5c-0.7-1-1.2-2.1-1.7-3.2
	c-0.5-1.3-1.4-2.3-2.6-3c0-0.1,0.1-0.1,0.1-0.2c0-0.1-0.1-0.2-0.1-0.3c-0.6-1.4-1.6-2.5-2.9-3.3c0,0,0.1-0.1,0.1-0.2
	c0-0.1-0.1-0.2-0.1-0.3l-2.3-3c-0.9-1-1.7-2-2.4-3.1c-1.1-2-2.7-3.7-4.6-4.9c-0.6-0.3-1.4-0.8-1.5-1.3c-1.1-3.1-2.8-6-5-8.5
	c-1.7-2.1-3.9-3.9-5.1-6.4l0.1,0.1l-2.4-2.8h-0.5l-1.9-3.8l-0.5-0.5l-1.4-1.5h0.1l-1.5-1.9l-0.5-0.5l-0.9-1.1
	c-1.3-1.8-3.3-2.8-4.5-4.7c-0.6-1-1.3-1.9-2.1-2.8c-1.5-1.9-3.1-3.8-4.6-5.8c-0.8-1.1-1.3-2.3-2-3.4c-0.5-0.8-1.5-1.3-1.9-2.1
	c-0.8-2-2.4-3.3-3.8-4.8c-0.9-1-1.7-2-2.5-3.1c-1.2-1.7-2.2-3.5-4.1-4.5c0,0,0.1-0.1,0.1-0.2c0-0.1-0.1-0.2-0.1-0.3
	c-1-1.5-2-2.9-3.1-4.3c-2-2.3-4.3-4.4-6.4-6.7l0.1,0c-1.2-1.4-2.4-2.9-3.6-4.3c-2.4-2.5-4.6-5.3-7.9-6.7c-0.8-0.3-1.9-0.3-2.3-0.8
	c-1.2-1.6-3-1.7-4.6-2.1s-2.5,0.1-2.7,1.7c-0.4,2.1-1.7,4-3.5,5.2c-3.2,2.1-5.1,5.5-8.1,7.7c-0.2,0.2-0.3,0.4-0.4,0.6
	c-1.3,2.6-3,5-4.9,7.2c-1.7,2.1-3.7,3.8-6,5.1c-2.2,1.2-3.7,3.1-5.1,5.2c-1.5,2.2-3.2,4.4-4.8,6.5c0,0.1-0.1,0.1-0.1,0.2
	c0,0.1,0.1,0.2,0.1,0.3c-0.5,0.2-1.2,0.1-1.5,0.5c-0.8,0.9-1.5,1.9-2.2,3c-0.6,1.1-1.3,2.2-2,3.3c-0.8,1-1.9,1.6-2.7,2.5
	c-2.2,2.5-4.2,5-6.1,7.7c-1.8,2.7-4.8,4.4-6,7.4c-2.1,0.3-2.3,2.4-3.5,3.6c-1.2,1.3-2.3,2.7-3.4,4.1c-0.3,0.3-0.4,0.6-0.5,1
	c0,1-0.6,2-1.6,2.4c-0.5,0.3-0.8,1.1-1.2,1.7c-0.2,0.4-0.4,0.8-0.6,1.2c-1,1.2-2.1,2.3-3.1,3.5l0.1-0.1c-1.2,2.7-3.7,4.3-5.5,6.6
	c-1.2,1.5-2.6,3-4,4.3l-0.5,0.5c-0.8,0.7-1.7,1.4-2.4,2.2c-1.5,1.8-3,3.6-4.5,5.3c-2,2.3-4.1,4.7-6.1,7c-0.2,0.3-0.4,0.6-0.6,1
	c-0.6,1.4-1.4,2.7-2.3,3.9c-1.3,1.5-2.8,2.9-4.3,4.3l0.1-0.1c-0.6,0.4-1.2,0.8-1.7,1.3c-0.9,1-1.2,2.4-0.8,3.7
	c0.4,0.8,0.9,1.6,1.3,2.5c0.5,1.4,1.7,2.5,3.1,3c-0.1,0-0.1,0.1-0.1,0.1c0,0.1,0,0.2,0.1,0.3l0.5,0.5l0.5,0.5
	c0.6,0.9,1.3,1.6,2.1,2.3c1.3,1,2.5,2.1,3.5,3.4c2,2.3,4.2,4.4,6.3,6.6l0.5,0.5c1,1.3,2,2.6,3.1,3.8c2.5,2.7,5.2,5.2,7.7,7.9
	c1.5,1.6,2.8,3.4,4.2,5.1c1.1,1.3,2.3,2.6,3.2,4.1c2,3,4.4,5.8,7,8.3c0.6,0.6,1.2,1.1,1.7,1.8c0.9,1.1,1.8,2.2,2.7,3.2
	c1.2,1.4,2.5,2.7,3.7,4l-0.1-0.1c2.3,2.5,4.6,5,6.8,7.6c2.6,3.1,4.9,6.3,8.1,8.8c0.4,0.4,0.6,0.9,0.9,1.4c0.1,0.4,0.4,0.7,0.6,1
	c2.3,1.8,4.3,3.9,5.9,6.3c0.5,0.6,1,1.2,1.6,1.7l-0.1-0.1c0.2,0.4,0.4,0.7,0.7,1c3.9,4.2,7.8,8.4,11.3,13.1c0.1,0.1,0.3,0.2,0.4,0.3
	l0.5,0.5c0.1,0.4,0.3,0.7,0.5,1c1.5,1.9,3.1,3.8,4.6,5.7c0.9,1.1,1.6,2.2,2.5,3.3l-0.1-0.1l1,1.5l0-0.1c0.6,0.8,1.3,1.7,1.8,2.5
	s1,1.6,1.6,2.4c0.3,0.4,0.6,0.9,0.9,1.3H104c1.1,1.3,2.1,2.7,3.2,4s2,2.7,3,4.1l-0.1-0.1c0.2,0.2,0.6,0.4,0.7,0.6
	c0.8,1.8,2.1,3.5,3.7,4.7l-0.1-0.1l0.7,0.9l4.1,5.4l-0.1-0.1c0.6,0.6,1.1,1.3,1.7,2c1.1,1.1,2.4,2.1,3.4,3.4s2.7,1.6,3.5,3.2
	c0.5,1.1,1.9,1.8,2.1,2.9c0.5,2,1.9,3.2,3.2,4.5c0.3,0.3,0.9,0.5,1.1,0.9c0.9,2.3,2.8,3.8,4.4,5.5c1.2,1.5,3.2,2.2,5.1,1.7
	c1.2-0.3,2.3-0.9,3.3-1.6c0.5-0.4,0.4-1.4,0.5-2.1c0.5-2.8,0.9-5.6,1.4-8.4c0.9-3.7,1.2-7.5,1-11.3c-0.1-1.5,0.1-3,0.6-4.4
	c1-2.3,1-4.8,1.5-7.2c0.4-1.3,0.5-2.7,0.5-4c-0.3-2.3-0.3-4.6-0.2-6.8c0.3-2.3,0.2-4.6,0.8-6.8c0.5-1.9,0.8-3.8,0.9-5.8
	c0.5-4.4,0.1-8.8,1.5-13.1c0.9-2.8-0.1-5.7-0.4-8.5c-0.1-0.6-0.3-1.5,0-1.8c1-1,0.7-2.2,0.8-3.3c0.1-1.1,0.4-2.2,0.8-3.2
	c1.8-4,2.6-8,1.4-12.4c0-0.2,0.1-0.4,0.2-0.6c2.1,0.5,2.5,0.8,2.6,2.7c0.3,3.2-0.1,6.3-1.1,9.3c-1.1,2.8-2.3,5.7-2,8.9
	c0.1,1.3,0.2,2.5,0.2,3.8c0.1,1,0.1,2,0.1,3c-0.4,3-0.9,5.9-1.2,8.9c-0.5,4.5-0.7,9.1-1.4,13.6c-0.7,3.6-0.9,7.3-0.7,11
	c0.3,3.9-0.5,7.5-1.3,11.2c-0.5,2.1-0.8,4.3-1,6.5c-0.1,4.4-0.1,8.7-1.5,12.9c-0.2,0.7-0.3,1.4-0.4,2.1c0,0.6,0.1,1.3,0.3,1.9
	c0.5-0.2,0.9-0.2,1.1-0.4c1.8-1.8,4.3-2.8,5.7-4.9c0.4-0.5,0.9-0.9,1.5-1.1c2.1-1.2,3.7-3,4.9-5.1c1.9-3.2,3.8-6.5,6.5-9.1
	c1.3-1.3,2.7-2.4,4-3.6c3.9-3.5,7.4-7.3,10.7-11.3l0.5-0.5l9-9.5l-0.1,0.1c1.3-1.1,2.5-2.1,3.8-3.2c0.4-0.3,0.7-0.7,0.8-1.1
	c0.4-1.2,1.4-2.2,2.5-2.7c0.9-0.6,1.7-1.4,2.3-2.2c2.3-2.6,3.9-5.7,6.5-8c1.4-1.2,2.7-2.7,3.7-4.3c0.6-1,1.4-1.8,2.3-2.5
	c0.7-0.5,1.3-1.1,1.9-1.8c0-0.1,0.1-0.1,0.1-0.2c0-0.1-0.1-0.2-0.1-0.3c0.8-0.5,1.5-1.1,2.1-1.9c0.7-1.1,1.7-2,2.8-2.7
	c1-0.5,1.8-1.2,2.4-2.1c0.6-1.3,2.4-1.9,2.3-3.6c0-0.1,0.3-0.4,0.5-0.4c0.9-0.2,1.1-1,1.5-1.7c1.7-2.6,3.5-5.1,5.2-7.6l-0.1,0.1
	c2.4-1.5,3.5-3.4,3.2-5.5c-0.7,0.1-1.4,0.1-2.1,0.2c-1.5,0.3-3,0.4-4.5,0.1c-1.6-0.3-3.3-0.3-5,0c-3.2,0.5-6.1,2-9.4,1.9
	c-1.9,0-3.8-0.2-5.6-0.4c-2.3-0.4-4.5-1.1-6.7-1.4c-3.4-0.5-6.9-0.8-10.3-1.1c-1.7-0.3-3.4-0.4-5.1-0.5c-2.3,0-4.5,0.4-6.8,0.5
	c-2.7,0.1-5.4,0.1-8.1,0c-0.9-0.1-1.8-0.1-2.8,0c-2.4,0-4.7,0.2-7,0.8c-0.2,0-0.3,0-0.5,0c-2.8-0.8-5.6-0.7-8.5-0.9
	c-1.6-0.1-3.5-0.3-4.8-1.2c-1.7-1.4-4.2-1.4-5.9,0c-1.6,1.2-3.5,2-5.4,2.5c-4.2,0.9-8.4,2.6-12.8,0.7c-0.3-0.1-0.6-0.1-0.9-0.1
	c-1.3-0.2-2.6,0.3-3.3,1.4c-0.4,0.5-0.7,1.1-1,1.6c-0.8,1.3-2.2,2.1-3.8,2.1c-0.9,0-1.7,0.1-2.6,0.1c-2.9,0-3.2-0.3-4-3
	c0-0.1-0.2-0.2-0.5-0.4c-0.5,0.1-1,0.3-1.5,0.5c-0.9,0.5-2.1,0.4-2.9-0.3c-2.2-1.4-2.7-3.1-1.5-5.5c1.1-2.1,2.4-4,3.6-6
	c1.1-1.8,2.2-3.4,1.7-5.7c0-0.7,0.1-1.4,0.5-2c0.7-1.6,1.5-3.1,2.3-4.6c0.2-0.3,0.3-0.6,0.3-0.9c0-1.3,0.1-2.5,0.1-3.8
	c0-1.9,0.6-3.8,1.9-5.2c0.8-0.9,1-2.1,0.6-3.3c-0.7-1.9-1-4-1-6c0.2-2.6-0.3-5-0.5-7.5c0-0.8-0.6-1.5-1.3-1.8
	c-3.1-1.2-6.3-1.9-9.6-2.2c-2.8-0.3-5.7-0.1-8.5-0.3c-2.2-0.2-4.3-1-6.5-0.6c-0.6,0.1-1.2-0.3-1.8-0.5l0.1-0.1l-0.1,0.1
	c-3-0.9-6.1-1.6-9.1-2.6c-1.9-0.8-4-1.2-6.1-1.3c-1.1-0.1-2.2-0.3-3.2-0.6c-0.4-0.1-0.7-0.3-1.1-0.3c-3.6-0.1-7.1-0.2-10.7-0.3
	c-1.3-0.2-2.6-0.2-3.9-0.1c-2.4,0.5-4.7,0-7-0.6c-2.6-0.6-5.3-0.2-7.9-1.1c-1.6-0.5-3.5,0-5.3,0c-0.4,0-0.8-0.1-1.1-0.2
	c-3.5-1.3-7.2-1.8-10.9-1.5c-2.9,0.2-6.1-0.3-8.4,2.2c-0.1,0.1-0.3,0.1-0.4,0.1c-1.1,0.2-2.1,0.8-2.6,1.8c-0.3,0.5-1,0.8-1.6,1.3
	c-1.1-2.3-0.9-3,0.6-4c1.4-0.9,3.3-1.1,4.4-2.5c3.3-0.5,6.3-1.7,9.8-1.7c3.5,0.1,6.9,0.6,10.3,1.4c2.6,0.6,5.2,0.9,7.8,0.8
	c0.6,0,1.1,0,1.6,0.1c2.2,0.4,4.3,0.9,6.5,1.1c2.9,0.3,5.8,0.4,8.8,0.6c1,0.1,1.9-0.2,2.6-1c1.2-1.6,2.5-3.2,3.7-4.9l0.1,0.2
	l-0.1-0.1c0.7-0.7,1.7-1.1,2.7-1.1c0.4,1.4,0.4,1.4-0.5,2.2c-1.2,1-2.3,2.2-3.4,3.3c-0.3,0.5-0.5,1.1-0.7,1.6h2.1
	c0.9-0.1,1.7-0.1,2.6,0c3,0.3,6,0.8,9,1.1c1,0.1,2,0.4,2.8,1c1,0.7,2,1.2,3.1,1.5c1.1,0.4,2.3,0.6,3.4,0.8c0.5,0.2,1.1,0.3,1.6,0.4
	c3.1,0.4,6.2,0.8,9.4,1.1c2.5,0.2,5,0.2,7.5,0.3c2,0.1,3.9,0.5,5.9,0.6c1.2,0.1,2.4,0,3.1,1.3c0.4,0.4,0.9,0.5,1.4,0.4
	c0.4-0.2,0.5-0.9,0.6-1.4c0-0.3,0-0.6-0.1-0.9c-0.7-2.2-0.9-4.6-0.6-6.9c0.1-0.2,0-0.5-0.1-0.7c-0.5-1-0.9-2.1-1.2-3.2
	c-0.9-2.9-2.2-5.7-3.2-8.6c-0.6-1.5-0.9-3-1.1-4.6c-0.2-1.4-1.5-2.9-0.1-4.4c0,0,0-0.2,0-0.2c-0.3-1.7-0.7-3.3-1-5
	c-0.2-0.9-0.2-1.9-0.3-2.8c-0.1-0.8-0.1-1.6-0.2-2.3c-0.6-2.2-0.8-4.5-0.7-6.8c0-1.3-0.1-2.5-0.3-3.8c-0.5-3.8-0.9-7.7-1.4-11.5
	c-0.3-2.2-0.3-4.5-1.2-6.5c-1.1-2.2-1.4-4.7-1.1-7.1c0.4-2.5,1.1-5.1,0.2-7.7c-0.3-0.9-0.5-1.8-0.5-2.8c-0.4-4.2-1.2-8.4-2.4-12.5
	c-0.7-2.2,0.5-6.1,2.2-7.3c0.7-0.5,1.5-0.7,1.5-1.6c0-0.9-0.2-1.7-0.4-2.5c-0.4-1.4-0.8-2.9-1.2-4.3c-0.7-2.2,0.2-3.8,1.7-5.3
	c1.1-1.1,1.8-0.9,2.9,0.7c-0.2,0.3-0.4,0.5-0.6,0.7c-2.1,1.4-2.2,3.3-1.4,5.4c0.4,1.1,0.6,2.3,1,3.4c0.7,1.5,0.4,3.2-0.8,4.3
	c-2.4,2.6-2.2,5.5-1.4,8.6c1,3.5,1.7,7.1,1.9,10.8c0,0.8,0.1,1.6,0.3,2.3c0.6,1.4,0.7,3,0.4,4.4c-0.3,2-0.5,4.1-0.8,6.1
	c-0.3,1.5,0.1,3.1,1.2,4.2c0.4,0.5,0.6,1.1,0.5,1.7c-0.6,1.5,0.1,2.7,0.3,4.1c0.3,1.8,0.5,3.6,0.6,5.4c0.2,3.2,1.5,6.3,1.1,9.6
	c-0.1,1.3-0.1,2.5,0.1,3.8c0.4,2.9,0.9,5.8,1.4,8.7c0.4,1.7,0.6,3.4,0.7,5.1c-0.1,3.3,0.5,6.6,1.8,9.7l-0.1,0.1l0-0.2
	c0.1,0.6,0.2,1.2,0.4,1.8c0.7,1.4,1.3,2.8,1.8,4.3c0.9,3.3,2.5,6.5,2.3,10.1c0.1,1.3,0.3,2.5,0.6,3.7c0.1,0.9,0.2,1.9,0.3,2.8
	c0,1.2,0.1,2.5,0.3,3.7c0.7,3.5,1.4,7,0.6,10.7c0,0.5,0.3,0.9,0.7,1.3c0.1,0.1,0.9-0.2,1.1-0.5c0.6-0.6,1-1.5,1.6-2
	c1.5-1.4,3.2-2.6,4.8-3.9c0.9-0.8,2-1.3,3.2-1.3c0.6,0,1.3-0.2,1.9-0.2c2.4,0,4.8-0.7,7.1,0.8c1,0.4,2.1,0.7,3.1,0.9
	c1.2,0.2,2.4,0.8,3.3,1.7c0.4,0.5,1,0.8,1.6,1c1.2,0.4,2.2,1.2,2.9,2.3c0.9,1.1,2,2,3,3l-0.1,0.1l0.1-0.1c0.4,1.3,0.8,2.6,1.1,4
	c0.3,0.9,0.6,1.8,0.7,2.8c0.2,3,0.2,6,0.4,9c0.1,1.7-0.6,3.3-1.8,4.4c-1.1,1.2-2.6,2.3-2.5,4.3c-0.1,0.4-0.2,0.8-0.4,1.1
	c-1.1,2.2-0.8,2.9,1.7,3.3c0.5,0.1,0.9,0.1,1.4,0.2c2.7,0.3,5.3,0.5,8,0.8c1.4,0.1,2.8,0.3,4.2,0.3c2.1,0.1,4.3,0,6.4,0.1
	c1.5,0,3,0.4,4.5,0.4c3.6-0.1,7.3-0.4,10.9-0.7c5.1-0.4,10.1,0.8,15.1,1.2c1.3,0,2.5,0.2,3.7,0.6c2.4,1,4.9,1.1,7.3,1.5
	c3.9,0.4,7.9-0.1,11.6-1.4c1.7-0.7,3.6-0.7,5.4-0.1c0.4,0.2,0.8,0.2,1.2,0.2c3.6-0.5,7.3,0,10.7-1.7c0.8-0.4,1.3-0.1,1.7,0.7
	s0.7,1.4-0.2,2.1c-0.7,0.5-1.3,1.2-1.8,1.8c-1.1,1.4-2,2.9-3.2,4.3s-2.6,2-2.7,3.9c0,0.2-0.5,0.4-0.7,0.6l0-0.1
	c-0.5,0.9-1,1.8-1.6,2.6c-1.2,1.5-2.4,3-3.6,4.4c-0.9,1-1.7,2-2.5,3.1c-1.1,1.6-2.5,3-4.2,4c-0.7,0.4-1.2,0.9-1.8,1.5
	c-1,1.2-1.7,2.8-2.9,3.6c-1.8,1.4-3.3,3.1-4.5,5c-0.2,0.3-0.5,0.6-0.8,0.9c-0.9,0.9-1.8,1.7-2.6,2.6c-1.4,1.6-2.8,3.4-4.2,5
	c-0.6,0.8-1.5,1.4-1.1,2.8l3,0.5l8.3,1.6c0.9,0.2,1.9,0.4,2.8,0.6l5.4,1c2.3,0.4,4.5,0.9,6.8,1.2c1.4,0.2,2.8,0.3,4.2,0.3
	c2.5,0,5-0.2,7.5-0.3c1.9-0.1,2.8-0.5,3.1-2.3c0.4-2.6,1.1-5.2,2-7.6c0.3-0.9,0-2.1,0.3-3c0.5-1.6,0.6-3.3,0.4-4.9
	c-0.1-0.9-0.1-1.9,0-2.9c0.8-5.4,1.2-10.8,1-16.3c-0.1-1.1,0-2.2,0.1-3.3c0.2-2.4,0.6-4.7,0.8-7.1c0.2-1.5,0.3-3,0.3-4.4
	c-0.1-4.6,0.1-9.3,0.6-13.9c0.3-4.3,0.6-8.5,1-12.8c0.2-2.8,0.4-5.7,0.7-8.5c0.3-2.6,1.1-5.1,1.3-7.7c0-2-0.1-4.1-0.5-6.1
	c-0.1-0.6-0.7-0.9-1.3-0.6c-1.3,0.4-2.1,1.9-1.7,3.2c0.1,0.3,0.2,0.6,0.4,0.8c1.2,1.9,1.1,2.9-0.5,4.6c-0.4,0.4-0.8,1-1.2,1.5
	c0.3,0.5,0.7,1,0.9,1.5c0.6,1.4,0.3,2.2-1.1,2.8c-1,0.5-2.2,0.5-3.2,0.2c-1.9-0.6-3.8-1-5.8-1.1c-3.2-0.1-6.3-0.8-9.1-2.2
	c-0.8-0.5-1.8-0.6-2.7-0.4c-1.4,0.5-2.9,0.3-4.1-0.6c-0.6-0.6-1.6-0.6-2.2,0.1c0,0-0.1,0.1-0.1,0.1c0.5,0.9,1,1.7,1.6,2.4
	c1.3,1.5,2.5,3,3.7,4.5c2.1,2.7,4.7,5.1,7.1,7.6l-0.1-0.1c0.3,0.5,0.7,1,1,1.5l-0.1-0.1c2,3.2,4.9,5.6,7.7,8.1h0.5
	c0.9,1.3,1.9,2.5,3,3.6c1.6,1.6,2.4,3.9,2,6.2c-0.2,1.8-1.3,2.7-3.3,3.1c-0.1-0.6-0.1-1.3,0-1.9c1.1-2,0.9-4.4-0.5-6.1
	c-1.9-2.9-4.2-5.4-6.9-7.6l-0.5-0.5c-1-1.3-2-2.6-3-3.8c-1.3-1.5-2.6-3-3.9-4.5l-4-4.6l0.1,0.1c-0.9-1.1-1.9-2.1-2.7-3.3
	c-1.1-1.5-2.1-3.1-3.4-4.4c-1.8-2-3.4-4.3-4.5-6.8c-0.1-0.2-0.3-0.3-0.5-0.5c-1.1-1.3-2.2-2.6-3.1-4c-0.9-1.6-2.1-3.1-3.5-4.4
	l0.1,0.1l-1.5-2l0.1,0.1l-2-2l0.1,0.1c-0.6-1.5-1.6-2.9-2.9-3.9l0.1,0.1c-1.3-1.6-2.6-3.1-3.9-4.7c-1-1.4-1.9-2.9-2.9-4.3
	c0,0,0.1-0.1,0.1-0.1C196.9,109.9,196.9,109.8,196.9,109.7z M40.1,75.4L41,74c0,0,0.1-0.1,0.1-0.2c0-0.1-0.1-0.2-0.1-0.3
	c0.4-0.4,1-0.7,1.1-1.1c0.3-1.1,1.1-2.1,2.1-2.7c0.3-0.2,0.6-0.4,0.6-0.7c0.3-2.2,2.6-3.1,2.7-5.2c2.5-0.1,2.5-0.1,3.5-2.1
	c0.1-0.3,0.3-0.5,0.6-0.7c2.2-1.1,2.6-3.6,4.2-5.3c-0.6-0.5-0.9-0.9-1.3-1.1c-1.9-0.8-3.9-1.2-5.9-1.4c-2.7,0.1-5.3-0.5-7.8-1.7
	c-0.8-0.5-1.8-0.2-2.2,0.5c-0.1,0.1-0.1,0.2-0.1,0.3c-0.3,1.2-0.5,2.4-0.7,3.7c-0.4,3.6-0.8,7.2-0.3,10.8c0.1,0.6,0.1,1.3,0.1,1.9
	c-0.4,2.3-0.9,4.6-1.4,6.8c-0.2,1-0.4,2-0.5,3c0.1,0.6,0.3,1.2,0.5,1.7L40.1,75.4L40.1,75.4z M53.9,194c2.1,0.6,4.1,1.3,6.3,1.8
	c0.4,0.1,1.3-0.1,1.4-0.4c0.1-0.6,0-1.1-0.2-1.7c-0.1-0.3-0.3-0.6-0.6-0.8c-2.2-1.7-3.6-4.2-5.5-6.2h0.1c-0.4-0.6-0.8-1.1-1.3-1.6
	c-1.6-1.6-3.8-2.9-4.9-4.8c-1.6-2.8-3.9-4.7-6-6.9c-0.8-0.9-1.7-1.9-2.5-2.8c-1.5-1.7-2.7-3.6-3.8-5.6c-1.1-1.9-3.1-3.4-4.7-5
	c-0.2-0.2-0.8-0.4-1-0.3c-0.4,0.3-0.6,0.7-0.6,1.1c-0.1,0.6,0.3,1.2,0.2,1.9c-0.1,3.1-0.5,6.1-0.4,9.1c0,2,0.4,4,1.1,5.9
	c0.9,1.8,1.5,3.8,1.8,5.8c0.1,1.1-0.1,2.2-0.1,3.3c0,2.3,0.4,2.8,2.7,3.1c0.4,0.1,0.8,0.1,1.2,0.1c3.5,0,6.9,0.7,10.2,1.9
	c-0.1,0.1-0.1,0.1-0.1,0.1c0,0.1,0.1,0.2,0.1,0.4c0.2,0.1,0.4,0.4,0.6,0.3c1-0.1,2.1,0.1,3,0.6C51.9,193.8,52.9,194,53.9,194
	L53.9,194z M196.8,92.1c-2.1-0.5-4.1-1.1-6.1-1.9c-1.7-0.7-3.6-1.1-5.4-1.3c-1.1-0.2-1.6,0.7-1,1.7c0.5,0.9,1.2,1.7,2,2.3
	c1.4,1.1,2.6,2.1,3.1,4c0.1,0.7,0.9,1.3,1.3,1.9l-0.1-0.1c0.5,1.4,2.4,1.9,2.3,3.8c0,0.2,0.3,0.3,0.5,0.5c0.7,0.7,1.3,1.5,1.9,2.3
	c1.4,2.1,3.3,3.9,4.3,6.3c0.1,0.2,0.4,0.3,0.5,0.5h0c0.8,0.8,1.4,1.8,1.8,2.9c0.3,1.1,1.3,2,2.3,1.6c1.9-0.8,3.5,0,5.3,0.3
	s3.6,0.7,5.4,1.1c0.7,0.2,1.5-0.2,1.8-0.9c0-0.1,0-0.1,0.1-0.2c0.3-1-0.5-1.4-1.4-1.6c-1.3-0.2-2.8-0.6-4-0.3
	c-1.7,0.4-2.4-1.3-3.9-1.2c0,0-0.3-0.8-0.2-1c0.4-0.4,1-0.9,1.4-0.9c1.6,0.1,3.1,0.2,4.7,0.5c0.8,0.1,1.6,0.3,2.8,0.6
	c0-1.2,0.1-2.2,0-3.1c-0.2-2.6,1.3-3.9,3.9-3.5c0.8,0.1,1.6,0.3,2.4,0.3c0.6,0.1,1.3-0.3,1.5-0.9c1.2-2.6,2.7-3.1,5.2-1.7
	c1.2,0.7,2.4,1.5,3.7,2c0.9,0.4,2.1,1,2.9,0.7c2.6-1.1,4.6-0.3,6.4,1.6c0.6,0.7,1.6,0.9,2.4,0.5c1.1-0.6,2.2-1.1,3.5-1.7
	c-0.4-0.8-1.2-1.3-2.1-1.3c-0.6-0.1-1.2-0.2-1.7-0.3c-1.7-0.4-3.6-0.4-4.9-1.9c0,0-0.2-0.1-0.2-0.1c-1.6,0.8-2.8-0.6-4.2-0.9
	c-1.7-0.3-3.3-0.9-5-1.3c-2.1-0.7-4.2-1.3-6.4-1.6c-2.3-0.2-4.5-0.8-6.6-1.7h0.1l-0.1,0.1c-3.4-0.8-6.6-2.2-9.9-3.3
	S200.1,93.3,196.8,92.1L196.8,92.1L196.8,92.1z M199.3,233.6l-3.9,3.9l0.1-0.1c-1.8,1.7-3.6,3.5-5.4,5.2c-1.3,1.2-2.6,2.5-3.7,3.9
	c-1.1,1.6-2.3,3-3.7,4.4c-1.4,1.3-2.6,2.7-3.9,4.1l0.1-0.1c-0.6,0.6-1.2,1.2-1.8,1.9c-1.3,1.7-3,3.2-4.8,4.3c-0.7,0.4-1.2,1-1.6,1.7
	c-0.9,1.8-2,3.3-3,5c-0.9,1.5-1.4,3.1-3.2,3.8c-0.3,0.1-0.5,0.4-0.6,0.7c-0.9,1.5-2.1,2.8-3.6,3.7c-0.3,0.2-0.4,0.7-0.7,1.3l2.8,0.2
	c0.7,0,1.4-0.4,1.7-1c1.1-1.6,1.1-1.5,3-0.6v2.3c1.3,0,2.3,0.8,3.7,0.1c0.4-0.2,1,0,1.6,0.1c3.3,0.6,6.6,1.5,10,1.9
	c3.5,0.4,7.1,0.1,10.6,1c0.2,0,0.5,0,0.7,0c2.4,0,4.9,0.1,7.3,0c1.3-0.1,2.5-0.3,3.7-0.5c0.8-0.1,1.4-0.9,1.4-1.7
	c0.1-1.4,0.3-2.8,0.5-4.3c0.1-1.3-0.4-1.8-1.8-1.9c-1.6-0.2-3.2-0.5-4.8-0.7s-3.1-0.4-4.7-0.5s-3-1-4.6-0.3c-0.5,0.1-1-0.1-1.4-0.5
	c-0.4-0.6-0.3-1.5,0.3-1.9c1-1,1.9-0.3,2.8,0.2l-0.1,0c0.4,0.1,0.9,0.2,1.3,0.2c0.9,0,1.7-0.2,2.6-0.2c2.9,0,5.8,0.5,8.6,1.4
	c1.1,0.4,1.5,0.1,1.6-0.9c0.5-3,1.1-5.9,1.6-8.8c0.4-1.5,0.6-2.9,0.7-4.4c0-5.4,0-10.9-0.2-16.3c-0.1-2.9-0.6-5.7-1-8.8
	c-2.2-0.5-4.6-1.2-6.6,0.9C200.3,232.9,199.8,233.3,199.3,233.6L199.3,233.6z M91,234.1c0.3-0.1,0.6-0.1,0.9-0.3
	c1.9-0.8,2.2-1.4,1.2-3.2c-0.6-1-1.3-1.9-2.1-2.8h0c-0.3-0.4-0.7-0.7-0.9-1.1c-0.5-1.8-1.9-3.3-3.7-3.9c-0.5-0.2-0.9-0.9-1.3-1.5
	s-0.9-1.4-1.3-2.2l0.1,0.1c-0.5-0.8-0.8-1.8-1.9-1.9s-1.3,1.1-1.7,2c-0.1,0.3-0.6,0.7-0.9,0.6c-0.4-0.1-1-0.5-1-0.8
	c-0.1-0.6,0-1.2,0.3-1.8c0.2-0.5,0.7-0.9,1-1.3c0.5-0.7,0.3-1.6-0.3-2c0,0-0.1,0-0.1-0.1c-0.5-0.5-1.2-0.5-1.7,0
	c-0.1,0.1-0.2,0.3-0.3,0.4c-0.4,0.7-1.2,1.3-2,1.4c-1.2,0.4-2.3,0.9-3.5,1.3c-3.1,0.8-6.4-0.4-8.3-2.9c-0.1-0.2-0.2-0.4-0.3-0.6
	c0-1.5,0.7-2.8,2-3.6c0.6-0.2,1.1-0.4,1.7-0.7l-0.1,0.1c0.2-0.3,0.3-0.6,0.6-0.7c0.5-0.2,1.2-0.6,1.4-0.4c0.5,0.4,0.7,0.9,0.8,1.5
	c0,0.3-0.7,0.7-1.1,1c-0.3,0.1-0.6,0-0.9,0.1c-1.2,0.1-1.6,0.9-1.7,1.9c-0.1,1,0.6,1.9,1.6,2c1.5,0.3,3,0.5,4.4-0.3
	c1.2-0.7,2.5-1.3,3.7-1.9c1.4-0.6,1.6-1,0.7-2.2c-0.8-1.1-1.7-2.1-2.6-3.1s-1.9-2.1-2.9-3.1c-1-0.8-1.9-1.7-2.8-2.7
	c-0.6-0.7-1.4-1.2-2.4-1.4c-1.5-0.2-2.9-0.7-4.3-1.3c-2.8-1.4-5.9-1.5-8.7-2.6c-2.1-0.7-4.2-1.3-6.4-1.7l0.1-0.1l-0.1,0.1
	c-2.6-0.4-5.2-0.8-7.8-1.1c-1.9-0.2-2-0.2-2.8,1.8c-2.4-1.1-5-1.7-6.2-4c0.5-0.9,0.8-1.9,1.1-2.9c0.1-1.3,0.1-2.5,0-3.8
	c0-1.2,0.3-2.6-0.2-3.4c-1.1-2.2-1.9-4.6-2.2-7.1c-0.5-2.7-0.1-5.3-0.1-8c0-2.9,1.3-5.9-0.4-8.8c-0.2-0.3,0-0.9,0.1-1.4
	c0.2-1.5,0-2-1.4-2.6c-0.6-0.3-1.2-0.5-1.8-0.7c0-0.4-0.1-0.8-0.2-1.2c-0.2-0.4-0.6-0.8-0.9-0.9c-0.4,0.1-0.8,0.4-0.9,0.8
	c-0.1,1.1-0.1,2.2,0,3.2c0.2,1.6,0.3,3.2,0.2,4.8c-0.7,4.4-1.5,8.9-2.4,13.2c-0.5,3.1-1.3,6.2-2.3,9.2c-0.7,2.3-1.2,4.7-1.3,7.1
	c-0.2,2-0.4,4.1-0.7,6.1c-0.3,1.5-0.5,2.9-0.7,4.4c0,1.9,0.4,3.8,0.4,5.7c0.1,1.7,0.1,3.3-0.2,5c-1.3,5.4-1,10.9-1.6,16.3
	c-0.4,3.1-0.5,6.2-0.4,9.4c0.1,4.3-0.8,8.5-1.2,12.8c-0.1,1.2-0.1,2.4-0.1,3.5c0.1,1.9,0.5,2.4,2.2,2.8c1.7,0.4,3.4,0.7,5.1,0.9
	c1.9,0.2,3.8,0.3,5.6,0.4s3.4,1.3,5.4,0.7c0.3-0.1,0.7,0.2,1.1,0.4h-0.1l0.1-0.1c1,0.2,2,0.5,3,0.6c3,0.5,6,0.8,9,0.8
	c3.9-0.1,7.7,0.5,11.4,1.5h-0.1l0.1-0.1l1.5,0.5h-0.1v-0.1l2.3,0.6c2.5,0.6,5,1.3,7.5,1.9c1.7,0.5,3.5,0.8,5.3,1
	c2.8,0.3,5.7,0.1,8.5,0.5c1.9,0.3,4,0,5.9,1.1c0.7,0.4,1.5,0.7,2.3-0.1c0.1-0.1,0.9,0.2,1.3,0.3l-0.2,0.1l0.1-0.1
	c2.6,0.2,5,1.3,7.7,1.1c0.2,0,0.5,0,0.7,0.2c2,1.1,4.4,0.9,6.6,1.3c2.7,0.5,5.5,0.7,8.2,1.3c2.5,0.6,5,0.7,7.5,0.5
	c0.9-0.2,1.9,0,2.7,0.5c0.6,0.6,1.6,0.6,2.2-0.1c0.1-0.1,0.1-0.2,0.2-0.2c-0.2-0.4-0.5-0.8-0.8-1.1c-2.2-2.3-4.4-4.5-6.5-6.8
	l-4.1-4.3l0.1,0.1c-1-2.1-2.5-3.9-4.3-5.3c-0.3-0.2-0.3-0.7-0.5-1c-1.9-2.9-3.9-5.6-8-5.3c-1.3,0-2.7-0.3-3.9-0.8
	c-1.6-0.5-1.6-0.6-1.1-2.8c1.6-0.3,2.8,0.6,4.2,1.1c0.5,0.2,1,0.2,1.4,0c0.3-0.4,0.5-0.9,0.5-1.4c0-0.4-0.2-0.8-0.4-1.1
	c-1.6-3-3.3-3.7-6.5-2.8l-2.8,0.8c0.4-0.8,0.5-1.3,0.7-1.4c0.8-0.4,1.5-0.8,2.3-1.2c0.7-0.3,1.4-0.7,1.1-1.6
	c-0.2-0.6-0.6-1.1-1.2-1.3c-0.4-0.1-1.1,0.3-1.6,0.6s-0.7,0.9-1.1,1.2c-0.6,0.3-1.1,0.6-1.8,0.8l0.2-3L91,234.1z M239.5,136.8
	c0.5,0.1,1.1,0.1,1.6,0.2c0.4,0,0.7-0.1,1-0.4c0.7-0.6,0.9-4.7,0.3-5.5c-0.3-0.3-0.7-0.6-1.2-0.7c-1.3-0.2-2.6-0.2-3.9-0.4
	c-3.7-0.5-7.3-1.1-11-1.7c-1.6-0.3-3.3-0.4-5-0.7c-0.9-0.2-1.8,0.3-2,1.2c0,0,0,0,0,0c-0.4,1.2,0,3.3,0.8,3.5c2.3,0.7,4.4,2,6.9,2.3
	c0.6,0,1.1,0.1,1.6,0.3C232,136.7,235.8,136.5,239.5,136.8z M249.8,115.2c0.1-0.7,0.2-1.1,0.2-1.6c-0.1-1.2-0.8-2.2-1.9-2.8
	c-1-0.4-1.4,0.3-2,0.8c-1.2,1.2-3.3,1.2-4.5,0c0,0-0.1-0.1-0.1-0.1c-0.3-0.3-0.5-0.7-0.7-0.9c-1-1.1-2.7-1.2-3.8-0.2
	c-1.4,1-1.9,0.9-3.1-0.1c-1.5-1.2-3.1-2.5-4.7-3.6c-0.6-0.6-1.6-0.5-2.2,0.1c-0.3,0.3-0.5,0.8-0.4,1.2c0,2,0,2,2.2,2.3
	c0.4,0.1,0.8,0.2,1.1,0.4c2.9,1.2,6.1,1.8,9.2,1.9c0.5,0,1.1,0.2,1.5,0.5c1.2,1.6,3.4,2.2,5.3,1.5c0.7,0.5,1.1,1.4,1,2.3
	c0,1.1,0.9,2.1,2,2.1c0.1,0,0.2,0,0.3,0c0.7,0,1.4-0.2,2-0.5c0.5-0.3,0.9-0.8,1.1-1.4c0.1-0.3-0.5-0.8-0.9-1.2
	C250.9,115.7,250.4,115.4,249.8,115.2L249.8,115.2z M249.2,127.4l3.4-3.1c-0.8-1.1-1.7-2.1-2.6-3c-0.6-0.4-1.3-0.5-1.9-0.4
	c-0.9,0.2-1.1,1.1-1,1.9c0,0.2,0.1,0.5,0.1,0.7c0.3,0.9,0.2,1.9-0.3,2.7c-0.7,1.2-1,2.7-0.7,4.1c0.1,0.5,0,0.9-0.2,1.3
	c-0.8,1-1.1,2.3-0.6,3.6c0.3,1,0.4,2,0.3,3c0,1.1,0.5,1.5,1.3,1.6c0.9,0.1,1.7-0.1,2.5-0.4c1.5-0.6,1.7-1.8,0.7-3
	c-0.5-0.6-1.1-1.1-1.8-1.6c-1.7-1.6-1.5-2.8,0.7-3.5c0.9-0.3,1.6-0.6,1.9-1.8L249.2,127.4z M246,143.4l0.2-0.4
	c-0.5-0.8-1-1.6-1.4-2.4c-0.2-0.8-1-1.3-1.8-1.1c-0.1,0-0.2,0.1-0.3,0.1c-2.3,0.6-4.6,0.3-6.8,0c-3.1-0.4-6.2-1.2-9.1-2.4
	c-2.5-1-5.4-1.4-7.2-3.8c-0.6-0.8-1.7-1-2.5-0.4c-0.1,0.1-0.1,0.1-0.2,0.2c0.9,1.5,1.7,3,2.6,4.5c0.3,0.4,0.9,0.5,1.4,0.7
	c1,0.3,1.9,0.6,2.9,0.9c0.3,0.2,0.7,0.3,1.1,0.4c3.3,0,6.5,0.6,9.6,1.7c1.6,0.7,3.4,0.9,5.1,0.7c1.8-0.4,3.6,0,5.1,1
	C245.1,143.2,245.6,143.3,246,143.4L246,143.4z M207.1,119.9c-0.4,1.1,0,2.3,0.8,3c2.3,2.8,4.5,5.5,6.9,8.2c0.5,0.4,1,0.6,1.5,0.8
	c0.8-2.6,0.8-2.8-0.8-3.9s-1.4-2.4,0.1-3.3c0.4-0.2,1-0.2,1.3-0.5s0.5-1.1,0.4-1.3c-0.7-0.9-1.4-2.2-2.4-2.5
	C212.4,119.5,209.7,119.3,207.1,119.9L207.1,119.9z M229.9,122.6c-0.4,0.1-1,0-1.1,0.2c-0.5,0.9-0.8,1.8-0.9,2.8c0,0.8,0.9,1,1.6,1
	c0.4,0,0.8,0.1,1.2,0.2c3.5,0.7,7.1,1.3,10.6,2c1.5,0.3,1.9,0.2,2.3-1.4c0.5-1.9,0.3-2.5-1.3-2.8C238.2,123.9,234,123.3,229.9,122.6
	L229.9,122.6z M229,117.5c-0.3-0.1-0.8,0.1-1,0.8c-0.3,0.7,0.1,1.5,0.8,1.8c0.4,0.2,0.8,0.3,1.3,0.4c4.3,0.8,8.7,1.5,13,2.2
	c0.5,0,1-0.2,1.3-0.7c0.1-0.5-0.1-1-0.4-1.4c-1-0.5-2-0.8-3.1-1.1c-0.8-0.2-1.7-0.3-2.5-0.4L229,117.5z M244.2,117.6v-0.7
	c-0.4-0.2-0.8-0.5-1.2-0.6c-2.6-0.7-5.1-1.6-7.7-2.1c-1.8-0.3-3.6-0.5-5.4-0.6c-0.3-0.1-0.6,0-0.9,0.1c-0.4,0.2-0.9,0.6-0.9,0.9
	c0.1,0.4,0.3,0.8,0.7,1c0.6,0.2,1.2,0.4,1.8,0.4c2.3,0.3,4.5,0.7,6.8,1c1.5,0.3,2.9,0.7,4.4,0.9
	C242.5,117.8,243.3,117.7,244.2,117.6L244.2,117.6z M225.3,111.3c-0.3-0.3-0.7-0.8-1.2-1c-1.2-0.5-2.4-0.8-3.6-1.1
	c-0.6,0-1.2,0.2-1.6,0.6c-0.5,0.5-0.4,1.3,0.1,1.8c0.1,0,0.1,0.1,0.2,0.1c0.8,0.7,1.8,1.3,2.7,1.9c2.6,1.7,2.8,1.6,3.3-1.5
	C225.1,111.9,225.2,111.8,225.3,111.3z M251,108.6c-0.1,0.8-0.2,1.5-0.3,2.2c-0.4,1.5,0.5,3.1,2.1,3.5c0.2,0,0.3,0.1,0.5,0.1
	c1,0.2,1.9-0.4,1.6-1.4c-0.5-1.4-1.1-2.7-1.8-4c-0.3-0.6-1.1-0.9-1.8-0.5C251.2,108.5,251.1,108.5,251,108.6z M220.3,125.5l3.4,0.4
	c0.8,0.2,1.6-0.4,1.7-1.1c0,0,0-0.1,0-0.1c0.2-0.9,0.6-2-0.4-2.6c-1.2-0.9-2.8-1.1-4.1-0.4C221.7,122.9,221.4,124.6,220.3,125.5z
	 M222.3,119.5l0-0.3c0.6,0.1,1.2,0.1,1.9,0c0.4-0.1,1.1-0.7,1-1c0-0.5-0.4-1.4-0.8-1.4c-1.5-0.5-3.1-0.4-4.6,0.3
	c-0.5,0.2-0.8,0.8-0.6,1.3c0.1,0.3,0.3,0.5,0.6,0.6C220.7,119.2,221.5,119.4,222.3,119.5L222.3,119.5z M116.9,175.2
	c2.5,0.9,5.4-0.1,6.4-2c0.1-0.3,0.1-0.6-0.1-0.8c-0.2-0.2-0.5-0.3-0.8-0.3C120.6,173,118.6,173.5,116.9,175.2z M152.3,165
	c-0.4-0.6-0.6-1.2-0.9-1.3s-1,0.3-1.3,0.6c-0.3,0.4-0.5,0.8-0.7,1.2c-0.4,0.6-1.1,1.3-0.2,1.8c0.6,0.2,1.3,0,1.9-0.4
	C151.6,166.4,152,165.7,152.3,165L152.3,165z M116.8,159.9l0.7,0.2c0.7-1.1,1.4-2.1,2-3.2c-0.5-1-1.3-1.3-2-0.9
	c-0.4,0.2-0.6,1-0.7,1.6C116.8,158.4,116.8,159.1,116.8,159.9L116.8,159.9z M147.6,170.8l-2.3,2.6c1.4,0.9,2.2,0.7,3-0.6
	C148.9,171.8,148.7,171.1,147.6,170.8L147.6,170.8z M149.6,150.9c-0.9-2.2-1.6-2.9-3.3-3.1C147.3,148.9,147.2,151,149.6,150.9
	L149.6,150.9z M137.5,156.6c-1.7-1-2-1-3.3,0.5C135.4,157.4,136.6,157.9,137.5,156.6L137.5,156.6z M255.7,120.2
	c-0.7-0.4-1.1-1-1.5-0.9s-1,0.7-1,1c0.1,0.5,0.5,0.9,1,1C254.6,121.4,255,120.8,255.7,120.2L255.7,120.2z M123.9,169.6
	c-0.3-0.4-0.6-0.8-0.8-0.8s-0.6,0.3-0.9,0.5l0.7,1L123.9,169.6z M145.2,176.4l-0.9,0.8c0.2,0.2,0.5,0.7,0.7,0.6s0.6-0.4,0.8-0.6
	C145.8,177,145.4,176.7,145.2,176.4z M144,175.5l-0.7-0.7c-0.2,0.2-0.4,0.5-0.6,0.8c0,0.1,0.4,0.5,0.6,0.5S143.6,175.8,144,175.5z
	 M143.3,146.1c-0.3-0.1-0.5-0.3-0.6-0.3s-0.3,0.3-0.4,0.4c0.2,0.2,0.4,0.3,0.7,0.4C142.9,146.6,143.1,146.3,143.3,146.1L143.3,146.1
	z M134.2,143.1l-0.3-0.5l-1.3,0.6c0.3,0.3,0.6,0.4,0.8,0.3C133.6,143.4,133.9,143.3,134.2,143.1L134.2,143.1z M150.9,159.3l-0.1-0.2
	c-0.1,0.1-0.2,0.2-0.3,0.2c0,0,0.1,0.1,0.1,0.2L150.9,159.3z M41.6,120.8l-0.1,0.1l0.1,0.1V120.8z"/>
<polygon class="st0" points="119.7,9.2 119.8,9.1 119.6,9.1 "/>
<polygon class="st0" points="124,13 124.1,12.9 123.9,12.9 "/>
<path class="st0" d="M86.3,21.5c-0.1-0.1-0.1-0.2-0.1-0.3c0,0,0.1-0.1,0.1-0.2h-0.1L86.3,21.5L86.3,21.5z"/>
<path class="st0" d="M132.1,22.5h0.5h0.1H132.1L132.1,22.5z"/>
<path class="st0" d="M132.5,22.5c0.1,0.1,0.1,0.2,0.1,0.3c0,0-0.1,0.1-0.1,0.1h0.1L132.5,22.5L132.5,22.5z"/>
<polygon class="st0" points="133.5,24.5 133.6,24.3 133.4,24.4 "/>
<path class="st0" d="M135,26.4L135,26.4L135,26.4z"/>
<polygon class="st0" points="136.4,28.3 136.4,28.1 136.3,28.2 "/>
<path class="st0" d="M138.3,30.6l0-0.2L138.3,30.6L138.3,30.6z"/>
<path class="st0" d="M139.2,32.1L139.2,32.1L139.2,32.1z"/>
<path class="st0" d="M74.4,33c0-0.1-0.1-0.2-0.1-0.3c0-0.1,0.1-0.1,0.1-0.2h-0.1L74.4,33L74.4,33z"/>
<polygon class="st0" points="140.6,34 140.7,33.8 140.6,33.9 "/>
<polygon class="st0" points="142.1,35.9 142.1,35.7 142,35.8 "/>
<path class="st0" d="M149.2,45.4h0.5h0.1H149.2L149.2,45.4z"/>
<path class="st0" d="M149.7,45.3v0.5h0.1L149.7,45.3L149.7,45.3z"/>
<polygon class="st0" points="163.5,63 163.6,62.9 163.5,63 "/>
<polygon class="st0" points="165.4,65.9 165.5,65.8 165.4,65.8 "/>
<polygon class="st0" points="166.9,67.8 166.9,67.7 166.8,67.8 "/>
<polygon class="st0" points="169.2,71.2 169.3,71 169.2,71.1 "/>
<path class="st0" d="M172.5,74.4c0.1,0.1,0.1,0.2,0.1,0.4c0,0-0.1,0.1-0.1,0.1h0.1L172.5,74.4L172.5,74.4z"/>
<path class="st0" d="M173.1,75.9v-0.2l-0.1,0.1L173.1,75.9z"/>
<polygon class="st0" points="175,77.8 175,77.7 174.9,77.8 "/>
<polygon class="st0" points="178.3,82.6 178.3,82.5 178.3,82.6 "/>
<polygon class="st0" points="179.7,84.5 179.8,84.3 179.7,84.4 "/>
<path class="st0" d="M12.9,138.7v0.2l0.1-0.1L12.9,138.7z"/>
<path class="st0" d="M8.7,114c-0.1-0.1-0.1-0.2-0.1-0.3c0-0.1,0.1-0.1,0.1-0.2H8.6L8.7,114L8.7,114z"/>
<path class="st0" d="M9.6,112.5l-0.1-0.1L9.6,112.5L9.6,112.5z"/>
<path class="st0" d="M13.4,107.3l-0.2-0.1L13.4,107.3L13.4,107.3z"/>
<polygon class="st0" points="13.9,106.3 13.8,106.3 13.9,106.4 "/>
<polygon class="st0" points="14.9,104.9 14.8,104.9 14.8,105 "/>
<path class="st0" d="M117.7,7.8h0.5V7.7L117.7,7.8L117.7,7.8z"/>
<path class="st0" d="M76.8,95.3c-1.4,1.8-2.7,3.6-4.1,5.4c-1.8,2.3-3.6,4.6-5.5,6.9c-0.3,0.4-1,0.8-1.1,1.2c-0.4,2-2,2.7-3.3,3.8
	c-1.4,1.4-2.7,3-3.9,4.7c-0.4,0.7-0.8,1.3-1.1,2.1c-1.1,0.2-2.2,0-2.3-1.1c0-0.9,0.3-1.8,0.9-2.5c1-1,2.1-1.9,3.2-2.8h-0.1
	c0-0.1,0.1-0.1,0.1-0.2c0-0.1-0.1-0.3-0.1-0.4h0.1c2.4-1.2,4.3-3.3,5.4-5.7c0.1-0.2,0.2-0.4,0.4-0.6c3-1.5,3.6-5.1,6-7.1
	c0.5-2,2.3-2.9,3.6-4.2c0.8-1,1.6-2,2.2-3.1c1.7,0.4,1.9,1,0.8,2.2C77.6,94.4,77.2,94.9,76.8,95.3L76.8,95.3z"/>
<path class="st0" d="M75.8,88.2c-1.9,2.8-4.1,5.4-6.6,7.7c-1.6,1.6-3.4,3-4.3,5.2c-0.2,0.7-0.9,1-1.5,0.9c-0.2,0-0.3-0.1-0.4-0.2
	c-1-0.6-1.4-1.2-0.7-2.1c0.5-0.8,1.2-1.4,2-1.9c3.8-2.1,6.4-5.3,8.8-8.8c0.8-1.1,1.5-2.3,2.3-3.5C77.1,86.1,77.2,86.7,75.8,88.2
	L75.8,88.2z"/>
<path class="st0" d="M52,155.4c-0.7,1.4-2,1.8-3.4,2.1c-1.5,0.4-2.8,1-4.1,1.7c-0.8,0.5-1.5,1.2-2,2c-0.5,0.7-0.9,1.4-1.4,2.1
	c-2.5-1.3-2.7-1.9-0.7-3.5c2.1-2,4.6-3.4,7.4-4.4c1.6-0.6,3.1-1.4,4.6-2.2c1.3-0.6,1.4-0.5,2.8,0.4C54.6,155.3,52.9,154.8,52,155.4
	L52,155.4z"/>
<path class="st0" d="M161.6,235.5c1.7-1.6,3.4-3.3,5.2-4.9c0.8-0.7,1.7-1.4,2.7-1.9c0.8-0.5,1.3-0.1,1.7,0.6
	c-5.1,3.6-9.1,8.2-12.9,13.1c-1.4-0.4-1.8-1.1-1.2-2.3c0.4-0.8,1-1.5,1.6-2.1C159.6,237.2,160.6,236.3,161.6,235.5L161.6,235.5z"/>
<path class="st0" d="M92.5,193.5c-2,1.9-4.3,3.4-5.6,6c-0.2,0.3-0.4,0.5-0.7,0.6c-1.3,0.6-2.3,1.6-3,2.8c-0.8,1-1.5,1.1-2.2,0.6
	c-0.7-0.6-0.8-1.6-0.2-2.3c0,0,0,0,0,0c0.2-0.3,0.5-0.8,0.8-0.8c2.3-0.6,3.3-2.8,5.2-3.9c0.6-0.4,1-1,1.5-1.5v0.1
	c1.3-0.9,2.1-2.5,3.8-3c0.6-0.2,1.2-0.6,1.6,0s0,1.1-0.6,1.5v0.1L92.5,193.5L92.5,193.5z"/>
<path class="st0" d="M139.2,61.6c0.3-0.4,0.6-0.9,0.8-1.4c0.7-1.3,1-1.3,2.4-0.3c-0.4,1.2-0.8,2.3-1.3,3.4c-1.3,2.4-2.7,4.7-4.2,7
	c-0.9,1.3-1.3,1.3-3.2,0.5c0.3-0.8,0.7-1.6,1.3-2.3c1-1,2.1-1.8,2.4-3.5C137.6,63.8,138.6,62.7,139.2,61.6l0.1,0.1L139.2,61.6z"/>
<path class="st0" d="M170.7,221.7c1,1,1.2,1.6,0.2,2.5c-2.2,2-4.8,3.6-6.3,6.4c-0.2,0.4-0.9,0.6-1.3,0.9c-1.3-1.8-1.3-1.8,0-3
	s2.2-2.5,3.9-2.9c0.3-0.1,0.5-0.5,0.8-0.8L170.7,221.7z"/>
<path class="st0" d="M193.7,142.7c1.5,1.4,1.5,1.5,0.3,2.7c-1.5,1.6-2.9,3.2-4.2,4.9c-0.5,0.9-1.5,1.2-2.5,0.8
	c0.2-0.8,0.3-1.7,0.7-2.1C190.2,147.1,191,144.1,193.7,142.7z"/>
<path class="st0" d="M143,70.6c-0.6,0.4-1.1,1.1-1.3,1.8c-0.5,1.2-1.1,2.4-1.9,3.5c-0.4,0.6-1,0.7-1.7,0.1c-0.6-3,1.6-4.7,3.1-6.8
	c0.5-0.4,1.1-0.7,1.7-0.6c0.4,0,0.9,0.4,1.4,0.6l-0.8,1.3v0.1L143,70.6L143,70.6z"/>
<path class="st0" d="M50.4,162.8l-5.6,6.3c-1.3-0.6-0.4-1.8-0.6-2.2c1.1-1.5,2.1-2.7,3-4C48.4,161.1,48.6,161.1,50.4,162.8z"/>
<path class="st0" d="M191.2,138.3c0.6-0.6,1.3-1.1,2-1.4c0.4-0.1,1.2,0.3,1.5,0.8c0.4,0.6,0,1.1-0.8,1.4c-1.4,0.6-2.4,1.9-2.8,3.3
	c-0.2,0.7-0.6,1.3-1.3,1s-0.8-1-0.6-1.8c0.3-1.3,1-2.5,2.1-3.4L191.2,138.3z"/>
<path class="st0" d="M19.6,125.4c0.7,0.9,0.8,1.6-0.5,2c-1,0.3-2.1,0.6-3.3,1c0,0.5-0.1,1-0.3,1.5c-0.3,0.4-0.7,0.7-1.2,0.8
	c-0.5,0-0.9-0.4-0.9-0.9c0-0.2,0-0.3,0.1-0.5c0.7-1.3,1-3,3.1-3.2c0.7-0.1,1.3-0.7,2-1C18.8,124.9,19.2,125.3,19.6,125.4l-0.1,0.2
	L19.6,125.4z"/>
<path class="st0" d="M93.5,202.1c-0.3,0.8-0.3,1.6-0.7,1.8c-1.8,1.4-2,4.4-4.8,5c-0.6-1.1-0.5-2.4,0.4-3.3c1.2-1.2,2.5-2.3,3.8-3.3
	C92.4,202.2,92.8,202.2,93.5,202.1z"/>
<path class="st0" d="M193.5,190.2c0.1,0.3,0.3,0.9,0.2,1c-1.6,1.5-3.3,2.9-5,4.3c-0.1,0.1-0.3,0-0.5,0c-0.6-0.3-0.9-1-0.6-1.6
	c0.1-0.1,0.2-0.3,0.3-0.4c0.6-0.8,1.4-1.4,2.3-1.9c0.5-0.3,1-0.3,1.3-1.1C191.9,189.4,192.8,189.4,193.5,190.2l-0.1,0.1L193.5,190.2
	z"/>
<path class="st0" d="M160.6,243.6c0.5-0.6,1.5-0.6,2.1-0.1c0.1,0.1,0.2,0.2,0.2,0.3l-2.3,2.2l0.1-0.1c-0.8,1-1.5,2-2.3,3
	c-0.8,1-1.4,1.1-2.4,0.1c0.5-1.5,1.4-2.8,2.8-3.6l-0.1,0.1C159.4,244.9,160,244.3,160.6,243.6l0.2,0.1L160.6,243.6z"/>
<path class="st0" d="M114,56.8c0.3-0.2,0.6-0.6,1-0.6c0.4,0,0.9,0.2,1.2,0.5c0.1,0.4,0.1,0.8-0.1,1.1c-0.9,0.8-1,1.9-1.3,2.9
	c-0.2,0.7-0.6,1.4-1.5,1.2c-0.8-0.2-1.3-1.1-1.1-1.9c0-0.1,0-0.1,0.1-0.2c0.4-0.9,0.8-1.7,1.3-2.5v-0.1h0.5l-0.1,0.1
	c0-0.1,0.1-0.1,0.1-0.2C114,57,114,56.9,114,56.8L114,56.8z"/>
<path class="st0" d="M17.2,137.9c-0.5-0.4-1-0.6-1.1-1c-0.1-0.4-0.1-0.9,0.2-1.2c1.3-0.7,2.2-1.9,2.5-3.3c0.1-0.3,0.9-0.5,1.4-0.6
	c0.3,0,0.8,0.5,0.8,0.7c-0.1,0.4-0.3,0.8-0.7,1.1c-1.2,0.7-2,1.8-2.2,3.2C18.1,137.2,17.6,137.5,17.2,137.9z"/>
<path class="st0" d="M194.5,195.9c0.1,0.1,0.3,0.2,0.3,0.3c0,1.4-2.6,3.6-3.9,3.3c-0.4-0.2-0.6-0.6-0.6-1.1
	C190.5,197.2,193.1,195.8,194.5,195.9L194.5,195.9L194.5,195.9z"/>
<path class="st0" d="M97.6,213c-0.1,1.4-2.4,2.9-3.3,2.5c-0.3-0.2-0.5-0.5-0.5-0.9c0.1-1,1.7-2.5,2.6-2.3
	C96.9,212.3,97.3,212.8,97.6,213z"/>
<path class="st0" d="M50.7,161.7l-0.8-0.7l0.3-0.3l0.8,0.8L50.7,161.7z"/>
<path class="st0" d="M94.4,203.1l0.1-0.4L94.4,203.1L94.4,203.1z"/>
<path class="st0" d="M94,204.1l0.4-1l-0.1-0.1L94,204.1L94,204.1z"/>
<polygon class="st0" points="123.9,17.2 123.9,17.3 124,17.3 "/>
<path class="st0" d="M133.5,28.2L133.5,28.2z"/>
<path class="st0" d="M70.1,43v-0.5c0.1,0.1,0.1,0.3,0.1,0.4C70.2,42.9,70.1,43,70.1,43z"/>
<path class="st0" d="M113.5,57.3l0.5-0.5h-0.1v0.6l0.1-0.1L113.5,57.3L113.5,57.3z"/>
<path class="st0" d="M159.7,61v0.6c-0.1-0.1-0.1-0.3-0.1-0.4C159.6,61.2,159.7,61.1,159.7,61z"/>
<path class="st0" d="M159.7,61.6L159.7,61.6z"/>
<polygon class="st0" points="161.6,63.4 161.6,63.5 161.6,63.5 "/>
<path class="st0" d="M163.1,64.8L163.1,64.8z"/>
<path class="st0" d="M163,65.4h0.6H163z"/>
<path class="st0" d="M165.4,69.2h0.6H165.4z"/>
<path class="st0" d="M143.5,70.6H143v0.1L143.5,70.6L143.5,70.6z"/>
<path class="st0" d="M168.2,72l-0.1,0.2L168.2,72L168.2,72z"/>
<path class="st0" d="M8.2,131.2H7.6v-0.5L8.2,131.2z"/>
<path class="st0" d="M8.7,131.6H8.1v-0.6L8.7,131.6z"/>
<path class="st0" d="M8.6,132.1L8.6,132.1z"/>
<polygon class="st0" points="209.7,126.8 209.6,126.9 209.8,126.9 "/>
<polygon class="st0" points="191.2,138.3 191.1,138.2 191.1,138.3 "/>
<polygon class="st0" points="208.3,124.9 208.2,125.1 208.3,125 "/>
<path class="st0" d="M21.1,144.5L21.1,144.5z"/>
<path class="st0" d="M21,145L21,145z"/>
<path class="st0" d="M206.4,123v0.1l0.1-0.1L206.4,123z"/>
<polygon class="st0" points="227.4,150.2 227.3,150.3 227.4,150.2 "/>
<polygon class="st0" points="5.7,120.2 5.8,120.3 5.8,120.1 "/>
<polygon class="st0" points="51.9,155.5 52.1,155.5 52,155.4 "/>
<polygon class="st0" points="203.5,119.2 203.4,119.3 203.6,119.3 "/>
<polygon class="st0" points="235.5,156.9 235.6,156.8 235.4,156.9 "/>
<polygon class="st0" points="236.4,158.4 236.5,158.2 236.4,158.3 "/>
<path class="st0" d="M238.4,163v0.6V163z"/>
<path class="st0" d="M238.3,163.5L238.3,163.5z"/>
<path class="st0" d="M244.6,166.4L244.6,166.4z"/>
<path class="st0" d="M59.7,113c0-0.1-0.1-0.2-0.1-0.3c0-0.1,0-0.1,0.1-0.2h-0.1L59.7,113L59.7,113z"/>
<path class="st0" d="M196.4,109.7h0.5v0.6L196.4,109.7z"/>
<polygon class="st0" points="54.4,183.1 54.5,183 54.3,183.1 "/>
<path class="st0" d="M235.5,188.3L235.5,188.3L235.5,188.3z"/>
<polygon class="st0" points="235.4,192.6 235.6,192.7 235.5,192.6 "/>
<path class="st0" d="M93,193.5h-0.5v0.1L93,193.5L93,193.5z"/>
<path class="st0" d="M88.3,195h-0.1l0.1,0.1L88.3,195z"/>
<path class="st0" d="M192.1,103L192.1,103z"/>
<polygon class="st0" points="94,204.1 93.9,204.1 94,204.1 "/>
<path class="st0" d="M218.8,208.3c0,0.2,0,0.4,0,0.6V208.3z"/>
<polygon class="st0" points="78.2,209.8 78.3,209.7 78.2,209.8 "/>
<path class="st0" d="M189.3,99.2v0.6c-0.1-0.1-0.1-0.3-0.1-0.4C189.1,99.3,189.2,99.2,189.3,99.2z"/>
<path class="st0" d="M91.1,224.1L91.1,224.1z"/>
<path class="st0" d="M91.1,224.6L91.1,224.6z"/>
<path class="st0" d="M25.7,96.3L25.7,96.3z"/>
<polygon class="st0" points="98.7,234.6 98.8,234.5 98.7,234.6 "/>
<path class="st0" d="M195,234.5l-0.2-0.1L195,234.5L195,234.5z"/>
<path class="st0" d="M161.7,235.5h-0.2l0.1,0.1L161.7,235.5z"/>
<path class="st0" d="M26.3,96.4v-0.6c0.1,0.1,0.1,0.2,0.1,0.4C26.4,96.3,26.3,96.3,26.3,96.4z"/>
<polygon class="st0" points="104,242.2 104,242.1 103.9,242.2 "/>
<path class="st0" d="M76.7,95.4L76.7,95.4L76.7,95.4z"/>
<path class="st0" d="M186,244.1L186,244.1z"/>
<path class="st0" d="M185.4,244v0.6c-0.1-0.1-0.1-0.2-0.1-0.4C185.3,244.2,185.4,244.1,185.4,244z"/>
<polygon class="st0" points="158.8,245.5 158.7,245.5 158.8,245.6 "/>
<path class="st0" d="M160.6,246l0.2,0.1L160.6,246L160.6,246z"/>
<path class="st0" d="M110.2,250.3l0-0.1L110.2,250.3L110.2,250.3z"/>
<polygon class="st0" points="114.4,255.6 114.5,255.4 114.4,255.5 "/>
<polygon class="st0" points="119.2,261.8 119.3,261.6 119.2,261.7 "/>
<path class="st0" d="M75.8,88.3l0.2,0.1L75.8,88.3L75.8,88.3z"/>
<polygon class="st0" points="35.8,84.9 35.9,85 35.8,84.9 "/>
<polygon class="st0" points="99.7,236 99.7,235.9 99.6,236 "/>
<path class="st0" d="M65.8,223.1c0.1,0,0.2,0.1,0.2,0.1c0.6,3.1,0.6,3.3,3.8,3.9c2.5,0.5,5,1.2,7.7,0.5c0.5-0.1,1.2,0.2,1.7,0.3
	l-0.1,0.1l0.1-0.1c0.1,0.1,0.3,0.3,0.3,0.4c-0.5,2.1,0.8,2.9,2.5,3.5c1,0.4,2,1,3,1.4c1.3,0.6,2.9,0.3,3.9-0.8
	c0.6-0.5,1-1.3,2.3-0.6v2.4l0.1-0.1c-0.4,0.1-0.7,0.3-1,0.5c-2.7,2.5-5.4,0.8-8-0.3c-1.8-0.8-3.6-1.4-4.9-3.1l0.1,0.1
	c-0.3-1.1-1.4-1.8-2.5-1.6c-0.1,0-0.2,0-0.2,0.1c-2.7,0.6-5.3-0.6-7.8-1.2c-0.9-0.2-1.7-1.5-2.2-2.4c-0.7-0.9-0.7-2.2-0.1-3.1v0.1
	l-0.1-0.1C64.8,222.5,65.3,222.5,65.8,223.1l-0.1,0.1L65.8,223.1z"/>
<path class="st0" d="M80.6,242.2c-1.3,1-2.6,0.5-3.7-0.3s-1-2-0.7-3.1c0.1-0.5,0.1-1,0.1-1.5c2.5-1.7,2.5-1.7,4.4-1l1.4,3.1
	L80.6,242.2l-0.1-0.1L80.6,242.2z M79.6,236.8c-0.6,0.5-1.1,1-1.5,1.6c-0.2,0.3,0.1,0.8,0.1,1.2c0.4-0.1,1,0,1.3-0.3
	C80,238.8,80.3,238.1,79.6,236.8L79.6,236.8z"/>
<path class="st0" d="M55.8,210.4c0.2-1.4,0.9-2.7,2-3.6c0.8-0.6,2.2-0.4,3.2-0.5c0.1,0.2,0.2,0.3,0.3,0.5c-1.2,0.8-2.2,1.9-2.9,3.1
	C57.9,210.9,56.8,211,55.8,210.4z"/>
<path class="st0" d="M106.3,256.5c-1.7,0.6-2.7,0.9-3.5-0.3c-0.2-0.4-0.2-0.8-0.1-1.3c0.3-0.3,0.8-0.4,1.2-0.2
	C104.8,255.3,105.5,255.9,106.3,256.5z"/>
<polygon class="st0" points="66.8,209.3 66.7,209.2 66.8,209.3 "/>
<polygon class="st0" points="83.9,219.3 83.8,219.4 84,219.3 "/>
<path class="st0" d="M91.1,227.8l0,0.2L91.1,227.8L91.1,227.8z"/>
<path class="st0" d="M77.2,231.2l-0.1,0.2L77.2,231.2L77.2,231.2z"/>
<polygon class="st0" points="113.4,258.3 113.4,258.4 113.5,258.4 "/>
<path class="st0" d="M196,265.8c-1.7,0.8-3.5,1.2-5.4,1.2c0-2,0.3-2.7,1.4-3C193.2,263.5,194.7,264.1,196,265.8z"/>
<path class="st0" d="M199.2,233.6h0.2l-0.1-0.1L199.2,233.6z"/>
<polygon class="st0" points="195.4,237.4 195.5,237.5 195.4,237.4 "/>
<polygon class="st0" points="178.7,255.1 178.9,255.2 178.8,255 "/>
<path class="st0" d="M192.1,269.4l0.1-0.2L192.1,269.4L192.1,269.4z"/>
<polygon class="st0" points="200.2,112.1 200.3,112 200.2,112.1 "/>
<polygon class="st0" points="190.7,98.8 190.8,98.6 190.6,98.7 "/>
<polygon class="st0" points="55.3,186.8 55.3,187 55.3,186.9 "/>
<path class="st0" d="M47.2,192.7L47.2,192.7z"/>
<path class="st0" d="M41.1,73.4L41.1,73.4z"/>
<polygon class="st0" points="40.1,75.4 40,75.3 40.1,75.4 "/>
</svg>
