<svg xmlns="http://www.w3.org/2000/svg" xmlns:xlink="http://www.w3.org/1999/xlink" viewBox="0 0 512 512"><defs><style>.a{fill:none;}.b{fill:#ffefdb;}.c{clip-path:url(#a);}.d{fill:#414042;}.e{fill:#6d6e71;}.f{fill:url(#b);}.g{fill:#f4ba89;}.h{fill:url(#c);}.i{fill:#5a351a;}.j{fill:#e1a570;}.k,.q{fill:#fff;}.l{fill:url(#d);}.m{fill:url(#e);}.n{fill:#d98750;}.o{fill:#e09866;}.p{fill:#3c2c21;}.q{opacity:0.32;}.r{fill:#3c2414;}.s{fill:#3c2311;}.t{fill:#ba7f4f;}</style><clipPath id="a"><path class="a" d="M493.14,256C493.14,387,387,493.14,256,493.14S18.86,387,18.86,256,125,18.86,256,18.86,493.14,125,493.14,256Z"/></clipPath><linearGradient id="b" x1="284.73" y1="423.64" x2="284.73" y2="317.51" gradientUnits="userSpaceOnUse"><stop offset="0" stop-color="#f4ba89"/><stop offset="1" stop-color="#d68655"/></linearGradient><linearGradient id="c" x1="212.96" y1="303.93" x2="237.31" y2="270.76" gradientUnits="userSpaceOnUse"><stop offset="0" stop-color="#e7955f"/><stop offset="0.3" stop-color="#eca571"/><stop offset="0.71" stop-color="#f2b483"/><stop offset="1" stop-color="#f4ba89"/></linearGradient><linearGradient id="d" x1="267" y1="262.52" x2="267" y2="238.16" gradientUnits="userSpaceOnUse"><stop offset="0" stop-color="#8b5f3d"/><stop offset="1" stop-color="#3c2517"/></linearGradient><linearGradient id="e" x1="200.94" y1="262.52" x2="200.94" y2="238.16" xlink:href="#d"/></defs><title>portrait</title><path class="b" d="M493.14,256C493.14,387,387,493.14,256,493.14S18.86,387,18.86,256,125,18.86,256,18.86,493.14,125,493.14,256Z"/><g class="c"><path class="d" d="M114.3,565.09s4.27-53.56,23.75-77.91c32.87-26.18,104.52-57.86,147.54-57.86s134.35,45.07,147.75,66.38c9.13,37.75,10.35,64.51,10.35,64.51s-118.32,16.44-153.23,16.44S114.3,565.09,114.3,565.09Z"/><path class="e" d="M335.75,440.27c-18.85-6.61-36.83-10.95-50.16-10.95-14.94,0-33.34,3.83-52.36,9.91,0,.08,8.58,25.23,51.6,25.23S335.74,440.3,335.75,440.27Z"/><path class="f" d="M325.87,278.65s-.91,158.74,0,157.83-12.48,15.67-41.09,15.67-41.24-15.67-41.24-15.67v-30.9s22.15-3.54,46.92-46.87S325.87,278.65,325.87,278.65Z"/><path class="g" d="M235.47,127s-44.64,40.19-63.31,69c6.9,8.93,8.11,10.55,8.11,10.55s-10.14,43.83-10.14,75.9,20.7,77.51,20.7,77.51-13.8,10.66-14.2,24.35c11.05,10,38.55,27.2,62.9,27.2s54.38-22.73,91.32-142S316.64,77.05,235.47,127Z"/><path class="h" d="M207.71,264s-8.05,31.94-6.74,43.41A238.13,238.13,0,0,0,243.84,309l6.25-13.79-14.62-5.28-4.87-27.55Z"/><path class="i" d="M256.59,182.16s-8.94,23.14-9.25,33.18c21,5.17,54.79,10.65,54.79,10.65l15.22-26.17A199.52,199.52,0,0,0,256.59,182.16Z"/><path class="i" d="M243.84,215s6.39-28.16,6.24-34.55C243.69,187.34,243.84,215,243.84,215Z"/><path class="g" d="M337,238.92s18.69,3.81,26.3,9c3,14-21.61,48.7-21.61,48.7s-12.48,3.51-19.48-.68C320.09,279.87,337,238.92,337,238.92Z"/><path class="j" d="M337.84,242.67l-8-6.93c0,.91-.3,74.88-99.84,74.88-37.39,0-59.21-18.13-59.17-17.37,3.57,30.55,20,66.67,20,66.67s-13.8,10.66-14.2,24.35c11.05,10,38.55,27.2,62.9,27.2s54.38-22.73,91.32-142Q335.11,255.6,337.84,242.67Z"/><path class="k" d="M243.84,260.29s-4.51-22.52,21.66-22.52a40.53,40.53,0,0,1,25,8.52s-3.85,17.86-23.46,20.09C255.83,267.65,243.84,264.14,243.84,260.29Z"/><path class="k" d="M212.54,249.33s-5.94-12.12-15.27-12.12-14.15,3.4-14.15,8.06c0,8.73,5.48,21.38,18.06,21.38C207.67,266.65,212.54,249.33,212.54,249.33Z"/><path class="l" d="M281.44,252.2A14.44,14.44,0,1,1,267,237.77,14.44,14.44,0,0,1,281.44,252.2Z"/><path class="m" d="M210.76,252.2c0,8-4.39,14.45-9.82,14.45s-9.83-6.47-9.83-14.45,4.4-14.43,9.83-14.43S210.76,244.23,210.76,252.2Z"/><path class="i" d="M183.12,245.27s-6.43-8.35,4.56-10.6c7.82-1.6,19.93,1.83,24,12.2-4-4-9.61-9.66-20.56-8.63C185,238.83,183.12,245.27,183.12,245.27Z"/><path class="i" d="M332.94,262.37s-14.5-50.74-14.67-94.58c0,0-11.78,12.34-16.85,9.51s9.13-17.87,9.13-17.87-40,19.28-51.34,11.57,28.61-18.87,28.61-18.87-73.25,19.48-78.53,11.16,14.82-17.86,14.82-17.86S124.47,132,124.47,112.76,255,96.93,255,96.93s-33.28-14.61-28.82-20.29S302,97.34,302,97.34s-9.34-9.34-4.87-11.77,55.2,32.06,68.19,66.56C364.53,196.78,332.94,262.37,332.94,262.37Z"/><path class="n" d="M228.72,311.8a162.69,162.69,0,0,1-28.11-2.39l-1.62-.29-.09-1.64c-1-18.7,16.38-83.67,18.68-92.17-3.9-6.93-3.71-7.27-3.1-8.3l.6-1,1.21,0V208l1.65,1.23a1.91,1.91,0,0,0,.33-1.6c.21.66,1.89,3.81,3.33,6.35l.42.74-.23.82c-.19.71-18.69,68.92-18.79,90a164.24,164.24,0,0,0,39.45,1.44l4.85-10.72-8.51-3.27,1.49-3.87,12.59,4.85-7.62,16.86-1.16.14A140.85,140.85,0,0,1,228.72,311.8Z"/><path class="i" d="M220.86,180.49C220.75,187,219.8,215,219.8,215c-32.62-4.06-36.69-1.53-42,3.34-3.81-10.65-7.65-27.85-7.65-27.85S177.48,176.68,220.86,180.49Z"/><path class="i" d="M244.12,261.26s-6.6-16.17,2.31-22c9.85-6.49,26.1-6.93,44,7-11.92-7.21-27.44-10.55-39.09-4.54C243.57,245.77,244.12,261.26,244.12,261.26Z"/><path class="o" d="M334,280.61l-1.36-3.91c4.55-1.59,14-6.25,14.31-10.48.16-2.67-3.63-5.12-6.83-6.71l-1.84-.91,4.49-9.32L355.38,253l-1.17,4-9.28-2.75-1.21,2.51c5.08,2.89,7.54,6.15,7.32,9.72C350.53,274.61,335.65,280,334,280.61Z"/><rect class="p" x="302.84" y="239.1" width="39.77" height="4.14" transform="translate(-11.38 16.03) rotate(-2.8)"/><path class="p" d="M221.92,241.88c-2-1.48-6-3.55-8.25-2.82-.51.16-1.25.57-1.74,2.14L208,240a6.86,6.86,0,0,1,4.42-4.84c4.94-1.6,11.27,2.91,12,3.43Z"/><path class="q" d="M159.64,245.48s20.63,4.87,48.5,3.77c-1.35,6.48-4.94,23.62-4.94,23.62l-41.39-6.22Z"/><path class="q" d="M223.15,249.25s56.4,6,79.71,2.51c-1.61,11.12-4.08,23.24-4.08,23.24s-23.36,4.93-75.79,0C222.65,258.47,223.15,249.25,223.15,249.25Z"/><path class="p" d="M204.85,275.09l-1.83-.16c-1.14-.1-28-2.49-41.76-6.29l-1.09-.3-.34-1.08c-5-16-.25-40.62-.05-41.66l.3-1.56,1.59-.11c3.62-.24,7.61-.37,11.88-.37a346.65,346.65,0,0,1,39.26,2.6l2.21.3ZM163.47,265c11.58,3,31.91,5.09,38.09,5.68L210.05,230a337.55,337.55,0,0,0-36.5-2.3c-3.54,0-6.89.09-10,.26C162.65,233.46,160,252.17,163.47,265Z"/><path class="p" d="M273.64,279.7h0c-18.26,0-41.28-1.53-50.88-2.64l-1.37-.16-.38-1.33c-1.25-4.36.22-40.08.53-47.19l.08-1.86,1.86-.12c2.66-.17,6.25-.25,10.66-.25,24.47,0,68.3,2.62,68.74,2.65l1.85.11.09,1.86c.05,1.07,1.17,26.42-4,44.8l-.2.71-.6.42C298.11,278,293.37,279.7,273.64,279.7Zm-48.84-6.58c10.26,1.07,31.66,2.44,48.83,2.44h0c16.41,0,21.71-1.26,23.38-2,4-14.86,3.86-34.68,3.71-40.78-8.66-.5-45.15-2.53-66.6-2.53-3.36,0-6.22.05-8.54.15C225,245.24,224.32,267.12,224.8,273.12Z"/><path class="r" d="M365.35,152.13c-.44-1.17-.94-2.33-1.46-3.5-12.9.6-36.19,4.42-49.05,22.42,2-1.8,3.43-3.26,3.43-3.26,0,1.77,0,3.55.1,5.34,12.2-16.68,35.17-19.87,46.95-20.36C365.32,152.56,365.34,152.34,365.35,152.13Z"/><path class="r" d="M255,96.93s-10.44-.27-25.41-.23c40.15,4,81,8.14,100.76,10.24q-2.85-2.49-5.64-4.75c-17.44-1.83-45.32-4.66-74.82-7.62C252.88,96,255,96.93,255,96.93Z"/><path class="r" d="M342.56,118.67c-1.07-1.12-2.14-2.23-3.24-3.31-28.22,8.94-82.08,24.76-122.2,29.05,4.37.67,7,1,7,1a59.35,59.35,0,0,0-5.27,2.94C260.25,143.71,315.11,127.42,342.56,118.67Z"/></g><path class="s" d="M278,323.53s-56.78,14.54-85.23-1.69c7.52,21.25,27.51,35.65,44.41,32.57C262.32,349.85,278,323.53,278,323.53Z"/><path class="k" d="M278,323.53s-58.49,8.81-85.23-1.69C203,339.3,210.24,342.17,232,341.22,255.82,340.17,278,323.53,278,323.53Z"/><path class="t" d="M281.12,325.18s2.37-4.85-4.12-5.56C278.92,322,281.12,325.18,281.12,325.18Z"/><path class="t" d="M190.12,323.73l4.69-5.47S188.76,317.45,190.12,323.73Z"/><path class="i" d="M216.52,355.8s-6.19,1.53-9.57,6.2-1.81,5.45-1.81,5.45.7.68,1,.63a23.25,23.25,0,0,1,3.78-4.32s-2,5.26-1.51,5.48c3.08,1.42,3.5,2.66,9.88,3.6a86.1,86.1,0,0,0,24.21-.45s1.56-5.72.52-9.09a12.06,12.06,0,0,0-2.68-4.93s-8.34,2.37-13.85,1.34A28.28,28.28,0,0,1,216.52,355.8Z"/></svg>